<?xml version="1.0" standalone="no"?>
<!DOCTYPE svg PUBLIC "-//W3C//DTD SVG 20010904//EN"
 "http://www.w3.org/TR/2001/REC-SVG-20010904/DTD/svg10.dtd">
<svg version="1.0" xmlns="http://www.w3.org/2000/svg"
 width="260.000000pt" height="260.000000pt" viewBox="0 0 260.000000 260.000000"
 preserveAspectRatio="xMidYMid meet">
<metadata>
Created by potrace 1.11, written by Peter Selinger 2001-2013
</metadata>
<g transform="translate(0.000000,260.000000) scale(0.100000,-0.100000)"
fill="#000000" stroke="none">
<path d="M1688 2423 c-8 -10 -57 -83 -109 -163 -52 -80 -101 -155 -109 -167
-8 -12 -45 -66 -81 -120 -36 -54 -88 -131 -115 -171 -27 -41 -59 -90 -72 -109
-18 -27 -28 -34 -45 -29 -97 24 -173 14 -260 -33 -47 -25 -182 -152 -215 -203
-9 -14 -47 -70 -83 -124 -116 -174 -164 -246 -174 -262 -32 -53 -98 -147 -150
-216 -111 -145 -108 -139 -96 -184 6 -22 20 -51 31 -65 28 -35 103 -77 138
-77 38 0 57 -22 43 -48 -19 -36 -94 -273 -88 -279 7 -7 57 36 166 141 l73 71
157 3 c86 2 271 -4 411 -13 265 -18 381 -15 483 11 61 16 141 58 185 99 15 14
32 25 38 25 8 0 15 -31 20 -82 l9 -83 95 -2 c133 -4 136 -5 144 -54 l7 -42
151 7 c84 4 155 9 160 12 9 6 11 1284 2 1308 -5 14 -28 16 -148 16 -77 0 -146
-4 -152 -8 -6 -4 -15 -20 -21 -37 l-10 -30 -109 -5 c-114 -5 -117 -6 -137 -64
-3 -9 -28 -2 -137 37 -30 10 -79 25 -109 33 -30 8 -68 21 -85 28 -17 7 -51 19
-75 27 -24 7 -45 18 -48 25 -4 10 138 233 307 484 154 228 171 256 165 271 -6
16 -113 89 -130 89 -7 0 -19 -8 -27 -17z m-578 -856 c0 -5 -92 -148 -205 -317
-113 -169 -222 -338 -242 -376 -75 -143 -188 -273 -239 -276 -79 -5 -116 10
-134 53 -14 32 -14 31 60 124 45 57 130 178 185 266 6 9 23 36 39 60 157 239
207 309 261 362 94 94 114 106 189 116 57 8 86 4 86 -12z m424 -122 c283 -95
289 -98 298 -131 5 -16 11 -117 15 -224 7 -220 -5 -349 -40 -420 -27 -58 -99
-130 -157 -158 -117 -56 -295 -76 -450 -51 -36 6 -191 14 -345 17 l-280 7 -3
25 c-6 36 14 93 41 118 13 13 55 35 93 49 66 25 77 26 250 25 199 -2 228 4
275 55 38 40 67 114 84 211 8 47 15 89 15 94 0 5 -17 8 -37 6 -37 -3 -38 -4
-48 -55 -14 -74 -23 -79 -87 -60 -29 9 -72 21 -96 27 -85 22 -73 60 99 318
108 163 145 212 161 212 11 0 107 -29 212 -65z m569 -49 c39 -40 48 -762 11
-934 -4 -22 -8 -23 -102 -20 l-97 3 3 35 c11 142 12 670 3 782 -10 107 -10
133 1 139 23 15 165 11 181 -5z m-965 -522 c16 -10 22 -24 22 -49 0 -44 -10
-47 -165 -43 -117 3 -120 4 -123 27 -6 37 6 67 30 79 31 16 205 5 236 -14z"/>
</g>
</svg>
